<svg viewBox="0 0 56 56" xmlns="http://www.w3.org/2000/svg"><path d="m49.16 0h-42.32c-3.77 0-6.84 3.07-6.84 6.84v42.32c0 3.78 3.07 6.84 6.84 6.84h42.32c3.78 0 6.84-3.07 6.84-6.84v-42.32c0-3.78-3.07-6.84-6.84-6.84zm-15.32 35.55-10.11 10.11c-1.28 1.28-2.99 1.99-4.8 1.99-1.81 0-3.52-.71-4.8-1.99s-1.99-2.99-1.99-4.8.71-3.52 1.99-4.8l10.11-10.11c1.28-1.28 2.99-1.99 4.8-1.99 1.05 0 2.09.24 3.03.71l-2.22 2.22c-.26-.05-.53-.08-.81-.08-1.05 0-2.04.41-2.78 1.15l-10.11 10.11-.03.03s-.01.01-.02.02c-.02.02-.04.04-.06.06l-.14.14c-.63.73-.99 1.65-1 2.62-.01 1.06.39 2.06 1.14 2.8.73.73 1.72 1.14 2.76 1.14.98 0 1.91-.35 2.65-1s10.37-10.36 10.37-10.36c.94-.94 1.34-2.3 1.07-3.6l2.22-2.22c1.3 2.6.81 5.76-1.27 7.84zm8.04-15.62-10.11 10.11c-1.28 1.28-2.99 1.99-4.8 1.99-1.06 0-2.1-.25-3.03-.71l2.13-2.13c.26.05.52.08.78.08.98 0 1.91-.35 2.65-1s10.36-10.36 10.36-10.36c1.54-1.53 1.54-4.03 0-5.57-.74-.74-1.73-1.15-2.78-1.15s-2.04.41-2.78 1.15l-10.11 10.11-.03.04s-.01.01-.02.02c-.02.02-.04.04-.06.06l-.14.14c-.82.95-1.17 2.23-.92 3.44l-2.13 2.13c-1.3-2.59-.8-5.75 1.27-7.83l10.11-10.11c1.28-1.28 2.99-1.99 4.8-1.99s3.52.71 4.8 1.99 1.99 2.99 1.99 4.8-.71 3.52-1.99 4.8z" fill="#414343"/></svg>