<svg viewBox="0 0 56 56" xmlns="http://www.w3.org/2000/svg"><path d="m49.16 0c3.77 0 6.84 3.07 6.84 6.84v42.32c0 3.78-3.07 6.84-6.84 6.84h-42.32c-3.78 0-6.84-3.07-6.84-6.84v-42.32c0-3.77 3.07-6.84 6.84-6.84zm-31.61 46.3v-24.69h-8.21v24.69zm29.59 0v-14.16c0-7.58-4.05-11.11-9.45-11.11-4.35 0-6.3 2.39-7.4 4.08v-3.5h-8.21c.11 2.32 0 24.69 0 24.69h8.21v-13.79c0-.74.05-1.48.27-2 .59-1.47 1.94-3 4.21-3 2.97 0 4.16 2.26 4.16 5.58v13.21zm-33.64-36.6c-2.81 0-4.64 1.85-4.64 4.27s1.78 4.27 4.53 4.27h.05c2.86 0 4.64-1.9 4.64-4.27-.05-2.42-1.78-4.26-4.59-4.27z" fill="#414343" fill-rule="evenodd"/></svg>